<mxfile host="app.diagrams.net" agent="Mozilla/5.0 (Windows NT 10.0; Win64; x64) AppleWebKit/537.36 (KHTML, like Gecko) Chrome/134.0.0.0 Safari/537.36" version="26.0.15">
  <diagram name="第 1 页" id="MfS198Wy1NwZ1x_ISPqj">
    <mxGraphModel dx="1434" dy="772" grid="1" gridSize="10" guides="1" tooltips="1" connect="1" arrows="1" fold="1" page="1" pageScale="1" pageWidth="827" pageHeight="1169" math="0" shadow="0">
      <root>
        <mxCell id="0" />
        <mxCell id="1" parent="0" />
        <mxCell id="4Owf74kS6vDMzwdoobzG-1" value="使用者" style="shape=umlActor;verticalLabelPosition=bottom;verticalAlign=top;html=1;outlineConnect=0;" vertex="1" parent="1">
          <mxGeometry x="20" y="525" width="70" height="120" as="geometry" />
        </mxCell>
        <mxCell id="4Owf74kS6vDMzwdoobzG-10" value="&lt;font style=&quot;font-size: 20px;&quot;&gt;Streamlit 前端&lt;/font&gt;" style="rounded=1;whiteSpace=wrap;html=1;fillColor=#d5e8d4;strokeColor=#82b366;" vertex="1" parent="1">
          <mxGeometry x="340" y="540" width="180" height="90" as="geometry" />
        </mxCell>
        <mxCell id="4Owf74kS6vDMzwdoobzG-11" value="&lt;font style=&quot;font-size: 20px;&quot;&gt;Python 後端&lt;/font&gt;" style="rounded=1;whiteSpace=wrap;html=1;fillColor=#fff2cc;strokeColor=#d6b656;" vertex="1" parent="1">
          <mxGeometry x="740" y="540" width="180" height="90" as="geometry" />
        </mxCell>
        <mxCell id="4Owf74kS6vDMzwdoobzG-12" value="&lt;font style=&quot;font-size: 20px;&quot;&gt;OpenAI API&lt;/font&gt;" style="rounded=1;whiteSpace=wrap;html=1;fillColor=#f8cecc;strokeColor=#b85450;" vertex="1" parent="1">
          <mxGeometry x="1170" y="540" width="180" height="90" as="geometry" />
        </mxCell>
        <mxCell id="4Owf74kS6vDMzwdoobzG-29" value="" style="shape=flexArrow;endArrow=classic;html=1;rounded=0;exitX=0.5;exitY=0.5;exitDx=0;exitDy=0;exitPerimeter=0;entryX=0;entryY=0.5;entryDx=0;entryDy=0;" edge="1" parent="1" source="4Owf74kS6vDMzwdoobzG-1" target="4Owf74kS6vDMzwdoobzG-10">
          <mxGeometry width="50" height="50" relative="1" as="geometry">
            <mxPoint x="650" y="580" as="sourcePoint" />
            <mxPoint x="700" y="530" as="targetPoint" />
          </mxGeometry>
        </mxCell>
        <mxCell id="4Owf74kS6vDMzwdoobzG-30" value="&lt;font style=&quot;font-size: 16px;&quot;&gt;輸入問題描述&lt;/font&gt;" style="edgeLabel;html=1;align=center;verticalAlign=middle;resizable=0;points=[];" vertex="1" connectable="0" parent="4Owf74kS6vDMzwdoobzG-29">
          <mxGeometry x="0.0011" y="4" relative="1" as="geometry">
            <mxPoint as="offset" />
          </mxGeometry>
        </mxCell>
        <mxCell id="4Owf74kS6vDMzwdoobzG-32" value="" style="shape=flexArrow;endArrow=classic;html=1;rounded=0;exitX=1;exitY=0.5;exitDx=0;exitDy=0;entryX=0;entryY=0.5;entryDx=0;entryDy=0;" edge="1" parent="1" source="4Owf74kS6vDMzwdoobzG-10" target="4Owf74kS6vDMzwdoobzG-11">
          <mxGeometry width="50" height="50" relative="1" as="geometry">
            <mxPoint x="650" y="580" as="sourcePoint" />
            <mxPoint x="700" y="530" as="targetPoint" />
          </mxGeometry>
        </mxCell>
        <mxCell id="4Owf74kS6vDMzwdoobzG-33" value="&lt;font style=&quot;font-size: 16px;&quot;&gt;傳送 API 請求&lt;/font&gt;" style="edgeLabel;html=1;align=center;verticalAlign=middle;resizable=0;points=[];" vertex="1" connectable="0" parent="4Owf74kS6vDMzwdoobzG-32">
          <mxGeometry x="-0.0032" y="2" relative="1" as="geometry">
            <mxPoint x="1" as="offset" />
          </mxGeometry>
        </mxCell>
        <mxCell id="4Owf74kS6vDMzwdoobzG-34" value="" style="shape=flexArrow;endArrow=classic;html=1;rounded=0;entryX=0;entryY=0.5;entryDx=0;entryDy=0;exitX=1;exitY=0.5;exitDx=0;exitDy=0;" edge="1" parent="1" source="4Owf74kS6vDMzwdoobzG-11" target="4Owf74kS6vDMzwdoobzG-12">
          <mxGeometry width="50" height="50" relative="1" as="geometry">
            <mxPoint x="650" y="570" as="sourcePoint" />
            <mxPoint x="700" y="520" as="targetPoint" />
          </mxGeometry>
        </mxCell>
        <mxCell id="4Owf74kS6vDMzwdoobzG-35" value="&lt;font style=&quot;font-size: 16px;&quot;&gt;呼叫 OpenAI API&lt;/font&gt;" style="edgeLabel;html=1;align=center;verticalAlign=middle;resizable=0;points=[];" vertex="1" connectable="0" parent="4Owf74kS6vDMzwdoobzG-34">
          <mxGeometry x="-0.0877" y="-3" relative="1" as="geometry">
            <mxPoint x="1" as="offset" />
          </mxGeometry>
        </mxCell>
        <mxCell id="4Owf74kS6vDMzwdoobzG-39" value="&lt;font style=&quot;font-size: 20px;&quot;&gt;Python 後端&lt;/font&gt;" style="rounded=1;whiteSpace=wrap;html=1;fillColor=#fff2cc;strokeColor=#d6b656;" vertex="1" parent="1">
          <mxGeometry x="740" y="690" width="180" height="90" as="geometry" />
        </mxCell>
        <mxCell id="4Owf74kS6vDMzwdoobzG-40" value="" style="shape=flexArrow;endArrow=classic;html=1;rounded=0;exitX=0.5;exitY=1;exitDx=0;exitDy=0;entryX=1;entryY=0.5;entryDx=0;entryDy=0;" edge="1" parent="1" source="4Owf74kS6vDMzwdoobzG-12" target="4Owf74kS6vDMzwdoobzG-39">
          <mxGeometry width="50" height="50" relative="1" as="geometry">
            <mxPoint x="630" y="570" as="sourcePoint" />
            <mxPoint x="680" y="520" as="targetPoint" />
          </mxGeometry>
        </mxCell>
        <mxCell id="4Owf74kS6vDMzwdoobzG-41" value="&lt;font style=&quot;font-size: 16px;&quot;&gt;回傳診斷結果&lt;/font&gt;" style="edgeLabel;html=1;align=center;verticalAlign=middle;resizable=0;points=[];" vertex="1" connectable="0" parent="4Owf74kS6vDMzwdoobzG-40">
          <mxGeometry x="0.1146" y="-4" relative="1" as="geometry">
            <mxPoint as="offset" />
          </mxGeometry>
        </mxCell>
        <mxCell id="4Owf74kS6vDMzwdoobzG-42" value="&lt;font style=&quot;font-size: 20px;&quot;&gt;Streamlit 前端&lt;/font&gt;" style="rounded=1;whiteSpace=wrap;html=1;fillColor=#d5e8d4;strokeColor=#82b366;" vertex="1" parent="1">
          <mxGeometry x="340" y="690" width="180" height="90" as="geometry" />
        </mxCell>
        <mxCell id="4Owf74kS6vDMzwdoobzG-43" value="" style="shape=flexArrow;endArrow=classic;html=1;rounded=0;exitX=0;exitY=0.5;exitDx=0;exitDy=0;entryX=1;entryY=0.5;entryDx=0;entryDy=0;" edge="1" parent="1" source="4Owf74kS6vDMzwdoobzG-39" target="4Owf74kS6vDMzwdoobzG-42">
          <mxGeometry width="50" height="50" relative="1" as="geometry">
            <mxPoint x="630" y="570" as="sourcePoint" />
            <mxPoint x="680" y="520" as="targetPoint" />
          </mxGeometry>
        </mxCell>
        <mxCell id="4Owf74kS6vDMzwdoobzG-44" value="&lt;font style=&quot;font-size: 16px;&quot;&gt;處理 &amp;amp; 傳送回前端&lt;/font&gt;" style="edgeLabel;html=1;align=center;verticalAlign=middle;resizable=0;points=[];" vertex="1" connectable="0" parent="4Owf74kS6vDMzwdoobzG-43">
          <mxGeometry x="0.0424" y="1" relative="1" as="geometry">
            <mxPoint x="-1" as="offset" />
          </mxGeometry>
        </mxCell>
        <mxCell id="4Owf74kS6vDMzwdoobzG-45" value="" style="shape=flexArrow;endArrow=classic;html=1;rounded=0;exitX=0;exitY=0.5;exitDx=0;exitDy=0;" edge="1" parent="1" source="4Owf74kS6vDMzwdoobzG-42" target="4Owf74kS6vDMzwdoobzG-1">
          <mxGeometry width="50" height="50" relative="1" as="geometry">
            <mxPoint x="410" y="620" as="sourcePoint" />
            <mxPoint x="460" y="570" as="targetPoint" />
          </mxGeometry>
        </mxCell>
        <mxCell id="4Owf74kS6vDMzwdoobzG-46" value="&lt;font style=&quot;font-size: 16px;&quot;&gt;顯示診斷結果&lt;/font&gt;" style="edgeLabel;html=1;align=center;verticalAlign=middle;resizable=0;points=[];" vertex="1" connectable="0" parent="4Owf74kS6vDMzwdoobzG-45">
          <mxGeometry x="0.049" y="6" relative="1" as="geometry">
            <mxPoint as="offset" />
          </mxGeometry>
        </mxCell>
      </root>
    </mxGraphModel>
  </diagram>
</mxfile>
